<?xml version="1.0" encoding="UTF-8" standalone="no"?><!-- Generator: Gravit.io --><svg xmlns="http://www.w3.org/2000/svg" xmlns:xlink="http://www.w3.org/1999/xlink" style="isolation:isolate" viewBox="0 0 52 52" width="52pt" height="52pt"><defs><clipPath id="_clipPath_3HgWIgYS5vYnukTp4TRsmxBZatSIOsy9"><rect width="52" height="52"/></clipPath></defs><g clip-path="url(#_clipPath_3HgWIgYS5vYnukTp4TRsmxBZatSIOsy9)"><path d=" M 25.781 2 C 12.549 2 1.781 12.768 1.781 26 C 1.781 39.232 12.549 50 25.781 50 C 39.013 50 49.781 39.232 49.781 26 C 49.781 12.768 39.013 2 25.781 2 Z  M 25.781 6 L 25.861 6 L 25.781 26 L 35.741 8.744 C 41.721 12.196 45.781 18.58 45.781 26 C 45.781 37.068 36.849 46 25.781 46 C 14.713 46 5.781 37.068 5.781 26 C 5.781 14.932 14.713 6 25.781 6 Z " fill="rgb(0,0,0)"/></g></svg>