<?xml version="1.0" encoding="UTF-8" standalone="no"?><!-- Generator: Gravit.io --><svg xmlns="http://www.w3.org/2000/svg" xmlns:xlink="http://www.w3.org/1999/xlink" style="isolation:isolate" viewBox="0 0 52 52" width="52pt" height="52pt"><defs><clipPath id="_clipPath_pztF0tSDwy4qk9dyaLEAHJBWZWCua5Is"><rect width="52" height="52"/></clipPath></defs><g clip-path="url(#_clipPath_pztF0tSDwy4qk9dyaLEAHJBWZWCua5Is)"><path d=" M 29.318 4 C 24.426 3.992 19.733 5.934 16.277 9.396 C 9.737 15.945 9.068 26.328 14.713 33.663 L 3.813 44.563 L 7.5 48.25 L 18.447 37.303 C 21.6 39.618 25.407 40.869 29.318 40.875 C 34.033 40.875 38.758 39.081 42.347 35.467 C 45.806 32.01 47.749 27.321 47.749 22.432 C 47.749 17.542 45.806 12.853 42.347 9.396 C 38.897 5.934 34.208 3.992 29.321 4 L 29.318 4 Z  M 29.318 8.917 C 32.929 8.917 36.329 10.328 38.881 12.875 C 44.141 18.165 44.141 26.71 38.881 32.001 C 36.347 34.54 32.906 35.965 29.318 35.959 C 28.664 35.959 28.023 35.892 27.388 35.804 C 27.437 35.796 27.494 35.796 27.551 35.796 C 27.319 35.757 27.081 35.767 26.86 35.728 C 29.119 35.301 31.233 34.31 33.006 32.846 L 33.006 28.584 L 28.089 28.584 L 28.089 33.5 L 23.172 33.5 L 23.172 28.584 L 18.256 28.584 L 18.256 23.667 L 15.854 23.667 C 15.709 22.013 15.866 20.348 16.316 18.75 L 18.256 18.75 L 18.256 14.689 C 18.458 14.398 18.67 14.112 18.89 13.833 L 23.172 13.833 L 23.172 10.397 C 25.075 9.424 27.181 8.916 29.318 8.917 Z  M 23.172 13.833 L 23.172 18.75 L 28.089 18.75 L 28.089 13.833 L 23.172 13.833 Z  M 28.089 13.833 L 33.006 13.833 L 33.006 18.75 L 37.357 18.75 C 36.079 14.267 32.573 10.765 28.089 9.492 L 28.089 13.833 Z  M 33.006 18.75 L 28.089 18.75 L 28.089 23.667 L 33.006 23.667 L 33.006 18.75 Z  M 33.006 23.667 L 33.006 28.584 L 36.396 28.584 C 37.18 27.051 37.659 25.382 37.807 23.667 L 33.006 23.667 Z  M 28.089 23.667 L 23.172 23.667 L 23.172 28.584 L 28.089 28.584 L 28.089 23.667 Z  M 23.172 23.667 L 23.172 18.75 L 18.256 18.75 L 18.256 23.667 L 23.172 23.667 Z " fill="rgb(0,0,0)"/></g></svg>