<?xml version="1.0" encoding="UTF-8" standalone="no"?><!-- Generator: Gravit.io --><svg xmlns="http://www.w3.org/2000/svg" xmlns:xlink="http://www.w3.org/1999/xlink" style="isolation:isolate" viewBox="0 0 52 52" width="52pt" height="52pt"><defs><clipPath id="_clipPath_NGurdqKzYTOH7qg3JJ30K9Gje4cIaWPp"><rect width="52" height="52"/></clipPath></defs><g clip-path="url(#_clipPath_NGurdqKzYTOH7qg3JJ30K9Gje4cIaWPp)"><path d=" M 20.667 3.84 C 18.529 3.84 16.593 4.818 15.18 6.291 C 13.768 7.762 12.81 9.666 12.196 11.882 L 5.857 34.469 L 6.017 34.523 C 5.632 35.595 5.325 36.734 5.325 37.932 C 5.325 40.583 6.051 43.132 7.776 45.071 C 9.5 47.006 12.169 48.16 15.553 48.16 C 17.196 48.142 18.815 47.76 20.294 47.042 C 22.145 46.135 24.076 44.192 24.076 41.342 L 24.076 41.234 C 24.076 41.234 24.016 39.511 22.85 37.825 C 21.686 36.143 19.276 34.523 15.553 34.523 C 14.68 34.523 14.015 34.844 13.369 35.376 C 12.603 36.005 12.154 36.941 12.144 37.932 C 12.144 38.732 12.43 39.497 12.996 40.171 C 13.562 40.842 14.501 41.342 15.553 41.342 L 15.553 37.985 C 15.5 38.033 15.553 37.951 15.553 37.932 C 18.389 37.932 19.422 38.87 20.028 39.745 C 20.614 40.597 20.667 41.355 20.667 41.395 L 20.667 41.449 C 20.628 42.84 19.92 43.461 18.802 44.006 C 17.65 44.572 16.085 44.751 15.553 44.751 C 12.883 44.751 11.305 43.984 10.279 42.833 C 9.254 41.681 8.734 39.99 8.734 37.932 C 8.734 34.15 11.77 31.114 15.553 31.114 C 21.32 31.114 24.463 34.477 27.859 38.945 L 27.804 38.945 C 27.804 38.945 32.991 46.456 41.122 46.456 L 42.614 46.456 L 42.827 44.964 L 46.023 19.395 L 46.236 17.477 L 44.319 17.477 C 37.727 17.477 33.878 12.949 33.878 12.949 C 32.258 10.798 31.048 8.601 29.137 6.823 C 27.199 5.018 24.484 3.84 20.667 3.84 Z  M 20.667 7.249 C 23.837 7.249 25.375 8.008 26.793 9.327 C 28.212 10.645 29.463 12.702 31.268 15.08 L 31.268 15.133 L 31.321 15.186 C 31.321 15.186 35.489 19.734 42.401 20.566 L 39.631 42.726 C 34.471 41.822 30.574 36.92 30.574 36.92 L 30.523 36.92 C 26.991 32.273 22.716 27.705 15.553 27.705 C 13.887 27.705 12.364 28.216 10.971 28.93 L 15.502 12.84 C 16.001 11.037 16.794 9.564 17.685 8.631 C 18.575 7.702 19.496 7.249 20.667 7.249 Z " fill="rgb(0,0,0)"/></g></svg>