<?xml version="1.0" encoding="UTF-8" standalone="no"?><!-- Generator: Gravit.io --><svg xmlns="http://www.w3.org/2000/svg" xmlns:xlink="http://www.w3.org/1999/xlink" style="isolation:isolate" viewBox="0 0 52 52" width="52pt" height="52pt"><defs><clipPath id="_clipPath_sTdCK0Nvnm5M9httmrqcv3Wnf9nlRnTO"><rect width="52" height="52"/></clipPath></defs><g clip-path="url(#_clipPath_sTdCK0Nvnm5M9httmrqcv3Wnf9nlRnTO)"><path d=" M 25.781 7.201 C 19.933 7.201 14.612 8.136 10.56 10.031 C 6.508 11.928 3.564 15.066 3.564 19.164 L 3.564 34.545 C 3.564 36.281 4.439 37.843 5.7 39.084 C 6.961 40.326 8.617 41.347 10.613 42.182 C 14.612 43.842 19.927 44.799 25.781 44.799 C 31.636 44.799 36.949 43.844 40.948 42.182 C 42.944 41.347 44.6 40.326 45.861 39.084 C 47.123 37.843 47.998 36.281 47.998 34.545 L 47.998 17.455 L 44.58 17.455 L 44.58 19.164 C 44.58 20.685 43.805 21.714 42.177 22.743 C 40.548 23.77 38.164 24.537 35.713 25.04 C 30.814 26.034 25.781 26 25.781 26 C 20.312 26 15.373 25.077 11.948 23.65 C 10.232 22.936 8.918 22.047 8.103 21.247 C 7.289 20.446 6.982 19.791 6.982 19.164 C 6.982 16.64 8.631 14.652 12.003 13.075 C 15.373 11.501 20.3 10.619 25.781 10.619 C 31.261 10.619 34.385 11.501 35.982 12.436 C 37.576 13.367 37.744 14.177 37.744 14.729 C 37.744 15.517 37.569 16.045 37.156 16.546 C 36.742 17.047 36.042 17.527 35.02 17.934 C 32.977 18.75 29.694 19.164 25.781 19.164 C 25.781 19.164 23.33 19.157 20.973 18.684 C 19.799 18.445 18.664 18.069 17.983 17.669 C 17.463 17.361 17.449 17.214 17.396 17.028 C 17.723 16.835 18.371 16.594 19.211 16.387 C 20.941 15.967 23.41 15.712 25.781 15.746 L 25.781 12.328 C 23.164 12.289 20.507 12.502 18.357 13.022 C 17.282 13.283 16.354 13.637 15.527 14.143 C 14.7 14.651 13.818 15.539 13.818 16.814 C 13.818 18.544 15.031 19.873 16.275 20.606 C 17.516 21.341 18.945 21.714 20.332 21.994 C 22.129 22.342 23.951 22.538 25.781 22.582 C 29.913 22.582 33.471 22.194 36.248 21.087 C 37.638 20.533 38.88 19.812 39.774 18.737 C 40.668 17.662 41.162 16.219 41.162 14.731 C 41.162 13.003 40.153 10.913 37.744 9.498 C 35.334 8.083 31.622 7.201 25.781 7.201 Z  M 6.982 24.771 C 8.105 25.593 9.325 26.275 10.613 26.802 C 14.612 28.461 19.927 29.418 25.781 29.418 C 25.781 29.418 31.002 29.491 36.356 28.403 C 39.032 27.863 41.775 27.022 43.992 25.626 C 44.192 25.499 44.385 25.339 44.58 25.198 L 44.58 34.545 C 44.58 35.172 44.272 35.827 43.459 36.628 C 42.912 37.168 42.136 37.742 41.162 38.283 L 41.162 31.127 L 37.744 31.127 L 37.744 39.672 C 36.682 39.993 35.554 40.279 34.326 40.526 L 34.326 36.254 L 30.908 36.254 L 30.908 41.061 C 29.772 41.193 28.632 41.282 27.49 41.328 L 27.49 32.836 L 24.072 32.836 L 24.072 41.328 C 22.929 41.281 21.789 41.191 20.654 41.06 L 20.654 36.254 L 17.236 36.254 L 17.236 40.579 C 15.988 40.34 14.879 40.012 13.818 39.672 L 13.818 31.127 L 10.4 31.127 L 10.4 38.284 C 9.426 37.742 8.652 37.168 8.103 36.626 C 7.289 35.827 6.982 35.176 6.982 34.545 L 6.982 24.771 Z " fill="rgb(0,0,0)"/></g></svg>