<?xml version="1.0" encoding="UTF-8" standalone="no"?><!-- Generator: Gravit.io --><svg xmlns="http://www.w3.org/2000/svg" xmlns:xlink="http://www.w3.org/1999/xlink" style="isolation:isolate" viewBox="0 0 52 52" width="52pt" height="52pt"><defs><clipPath id="_clipPath_sTClPeNjMHJKZx3ybHztbbwC8LhRj9qw"><rect width="52" height="52"/></clipPath></defs><g clip-path="url(#_clipPath_sTClPeNjMHJKZx3ybHztbbwC8LhRj9qw)"><path d=" M 14.844 4 L 14.844 15.104 L 19.286 15.104 L 19.286 4 L 14.844 4 Z  M 32.611 4 L 32.611 15.104 L 37.053 15.104 L 37.053 4 L 32.611 4 Z  M 3.74 6.221 L 3.74 10.663 L 12.624 10.663 L 12.624 6.221 L 3.74 6.221 Z  M 21.507 6.221 L 21.507 10.663 L 30.39 10.663 L 30.39 6.221 L 21.507 6.221 Z  M 39.274 6.221 L 39.274 10.663 L 48.157 10.663 L 48.157 6.221 L 39.274 6.221 Z  M 5.961 12.883 L 5.961 26.208 L 10.403 26.208 L 10.403 12.883 L 5.961 12.883 Z  M 23.728 12.883 L 23.728 26.208 L 28.17 26.208 L 28.17 12.883 L 23.728 12.883 Z  M 41.495 12.883 L 41.495 26.208 L 45.936 26.208 L 45.936 12.883 L 41.495 12.883 Z  M 12.624 17.325 L 12.624 21.767 L 21.507 21.767 L 21.507 17.325 L 12.624 17.325 Z  M 30.39 17.325 L 30.39 21.767 L 39.274 21.767 L 39.274 17.325 L 30.39 17.325 Z  M 14.844 23.988 L 14.844 37.313 L 19.286 37.313 L 19.286 23.988 L 14.844 23.988 Z  M 32.611 23.988 L 32.611 37.313 L 37.053 37.313 L 37.053 23.988 L 32.611 23.988 Z  M 3.74 28.429 L 3.74 32.871 L 12.624 32.871 L 12.624 28.429 L 3.74 28.429 Z  M 21.507 28.429 L 21.507 32.871 L 30.39 32.871 L 30.39 28.429 L 21.507 28.429 Z  M 39.274 28.429 L 39.274 32.871 L 48.157 32.871 L 48.157 28.429 L 39.274 28.429 Z  M 5.961 35.092 L 5.961 48.417 L 10.403 48.417 L 10.403 35.092 L 5.961 35.092 Z  M 23.728 35.092 L 23.728 48.417 L 28.17 48.417 L 28.17 35.092 L 23.728 35.092 Z  M 41.495 35.092 L 41.495 48.417 L 45.936 48.417 L 45.936 35.092 L 41.495 35.092 Z  M 12.624 39.534 L 12.624 43.975 L 21.507 43.975 L 21.507 39.534 L 12.624 39.534 Z  M 30.39 39.534 L 30.39 43.975 L 39.274 43.975 L 39.274 39.534 L 30.39 39.534 Z " fill="rgb(0,0,0)"/></g></svg>