<?xml version="1.0" encoding="UTF-8" standalone="no"?><!-- Generator: Gravit.io --><svg xmlns="http://www.w3.org/2000/svg" xmlns:xlink="http://www.w3.org/1999/xlink" style="isolation:isolate" viewBox="0 0 52 52" width="52pt" height="52pt"><defs><clipPath id="_clipPath_clooMsnPDUETI3Fhde15hPDzuWs34S8f"><rect width="52" height="52"/></clipPath></defs><g clip-path="url(#_clipPath_clooMsnPDUETI3Fhde15hPDzuWs34S8f)"><path d=" M 39.063 35.324 C 36.88 35.324 35.104 37.099 35.104 39.282 C 35.104 41.464 36.88 43.24 39.063 43.24 C 41.245 43.24 43.021 41.464 43.021 39.282 C 43.021 37.099 41.245 35.324 39.063 35.324 Z  M 39.063 40.601 C 38.335 40.601 37.743 40.009 37.743 39.282 C 37.743 38.554 38.335 37.962 39.063 37.962 C 39.79 37.962 40.382 38.554 40.382 39.282 C 40.382 40.009 39.79 40.601 39.063 40.601 Z  M 39.063 3.482 C 33.97 3.482 29.827 7.626 29.827 12.718 L 29.827 14.038 L 13.818 14.038 L 13.818 8.76 L 8.541 8.76 C 5.631 8.76 3.263 11.128 3.263 14.038 L 3.263 43.24 C 3.263 46.15 5.631 48.518 8.541 48.518 L 39.063 48.518 C 44.155 48.518 48.298 44.374 48.298 39.282 L 48.298 12.718 C 48.298 7.626 44.155 3.482 39.063 3.482 Z  M 5.902 14.038 C 5.902 12.583 7.086 11.399 8.541 11.399 L 11.18 11.399 L 11.18 37.962 L 8.541 37.962 C 7.58 37.962 6.679 38.22 5.902 38.671 L 5.902 14.038 Z  M 8.541 45.879 C 7.086 45.879 5.902 44.695 5.902 43.24 C 5.902 41.785 7.086 40.601 8.541 40.601 L 13.818 40.601 L 13.818 16.676 L 29.827 16.676 L 29.827 39.282 C 29.827 41.864 30.892 44.201 32.606 45.879 C 31.479 45.879 9.606 45.879 8.541 45.879 Z  M 39.063 45.879 C 35.425 45.879 32.466 42.919 32.466 39.282 C 32.466 35.644 35.425 32.685 39.063 32.685 C 42.7 32.685 45.66 35.644 45.66 39.282 C 45.66 42.919 42.7 45.879 39.063 45.879 Z  M 39.063 30.046 C 36.481 30.046 34.143 31.112 32.466 32.825 L 32.466 12.718 C 32.466 9.081 35.425 6.121 39.063 6.121 C 42.7 6.121 45.66 9.081 45.66 12.718 L 45.66 32.825 C 43.982 31.112 41.645 30.046 39.063 30.046 Z " fill-rule="evenodd" fill="rgb(0,0,0)"/></g></svg>