<?xml version="1.0" encoding="UTF-8" standalone="no"?><!-- Generator: Gravit.io --><svg xmlns="http://www.w3.org/2000/svg" xmlns:xlink="http://www.w3.org/1999/xlink" style="isolation:isolate" viewBox="0 0 52 52" width="52pt" height="52pt"><defs><clipPath id="_clipPath_vKj04wgdII1EHoZ8D2nCpRzlfVWDdLJv"><rect width="52" height="52"/></clipPath></defs><g clip-path="url(#_clipPath_vKj04wgdII1EHoZ8D2nCpRzlfVWDdLJv)"><path d=" M 4.713 4.162 C 4.295 4.241 3.995 4.61 4.003 5.035 L 4.003 15.245 C 3.998 15.688 4.327 16.064 4.767 16.118 L 29.798 19.148 L 8.999 20.95 C 8.963 20.947 8.926 20.947 8.89 20.95 C 6.979 21.38 5.699 22.278 4.959 23.271 C 4.346 24.08 4.01 25.066 4.003 26.082 L 4.003 26.764 C 3.999 26.8 3.999 26.837 4.003 26.873 L 4.003 38.229 C 4.003 39.041 4.21 40.122 4.958 41.123 C 5.705 42.122 6.974 42.978 8.889 43.361 C 8.916 43.371 8.943 43.38 8.97 43.388 L 46.697 47.837 C 46.946 47.867 47.196 47.789 47.384 47.622 C 47.572 47.455 47.679 47.215 47.678 46.964 L 47.678 36.208 C 47.668 35.776 47.343 35.416 46.914 35.363 L 19.316 32.277 L 42.601 30.286 C 44.604 30.091 45.962 29.169 46.696 28.102 C 47.429 27.034 47.596 25.883 47.596 25.126 L 47.596 14.18 C 47.657 14.052 47.686 13.911 47.678 13.77 C 47.672 12.746 47.337 11.751 46.723 10.931 C 45.983 9.938 44.703 9.068 42.792 8.638 C 42.765 8.628 42.738 8.619 42.711 8.611 L 4.984 4.162 C 4.921 4.155 4.857 4.155 4.793 4.162 L 4.712 4.162 L 4.713 4.162 Z  M 5.75 6.018 L 8.37 6.318 L 8.37 11.15 C 8.367 11.464 8.531 11.757 8.803 11.917 C 9.077 12.075 9.41 12.075 9.684 11.917 C 9.956 11.757 10.121 11.463 10.117 11.15 L 10.117 6.537 L 12.738 6.837 L 12.738 9.047 C 12.734 9.362 12.898 9.655 13.171 9.816 C 13.444 9.973 13.778 9.973 14.051 9.816 C 14.324 9.655 14.488 9.362 14.485 9.047 L 14.485 7.055 L 17.105 7.355 L 17.105 9.675 C 17.102 9.99 17.266 10.283 17.539 10.444 C 17.812 10.601 18.146 10.601 18.419 10.444 C 18.692 10.283 18.856 9.99 18.852 9.675 L 18.852 7.573 L 21.473 7.874 L 21.473 12.815 C 21.469 13.129 21.634 13.423 21.906 13.583 C 22.18 13.74 22.513 13.74 22.787 13.583 C 23.059 13.423 23.223 13.129 23.22 12.815 L 23.22 8.066 L 25.84 8.366 L 25.84 10.796 C 25.837 11.11 26.001 11.403 26.274 11.564 C 26.547 11.721 26.881 11.721 27.154 11.564 C 27.427 11.403 27.591 11.109 27.587 10.795 L 27.587 8.585 L 30.208 8.885 L 30.208 11.315 C 30.205 11.628 30.369 11.922 30.641 12.082 C 30.915 12.239 31.248 12.239 31.522 12.082 C 31.794 11.922 31.959 11.627 31.955 11.314 L 31.955 9.104 L 34.576 9.403 L 34.576 14.48 C 34.572 14.794 34.736 15.087 35.009 15.247 C 35.282 15.405 35.616 15.405 35.889 15.247 C 36.162 15.087 36.326 14.793 36.323 14.479 L 36.323 9.621 L 38.943 9.921 L 38.943 12.46 C 38.94 12.774 39.104 13.067 39.376 13.228 C 39.65 13.385 39.984 13.385 40.257 13.228 C 40.529 13.067 40.694 12.774 40.69 12.46 L 40.69 10.14 L 42.41 10.33 L 42.519 10.358 C 42.813 10.43 43.065 10.515 43.311 10.604 L 43.311 12.979 C 43.307 13.293 43.471 13.586 43.744 13.747 C 44.017 13.904 44.351 13.904 44.625 13.747 C 44.897 13.586 45.061 13.292 45.058 12.978 L 45.058 11.696 C 45.154 11.795 45.256 11.897 45.331 11.997 C 45.716 12.516 45.86 13.048 45.904 13.471 L 45.904 13.498 C 45.871 13.585 45.852 13.678 45.849 13.771 C 45.849 14.31 45.706 15.391 45.222 16.282 C 44.737 17.173 44.003 17.907 42.437 18.057 L 38.206 18.411 L 38.097 18.411 L 5.75 14.48 L 5.75 6.018 Z  M 45.849 18.165 L 45.849 25.126 C 45.849 25.593 45.716 26.413 45.249 27.091 C 44.782 27.77 44.017 28.384 42.437 28.538 L 10.39 31.296 L 9.244 31.158 C 7.732 30.854 6.913 30.11 6.405 29.247 C 5.896 28.384 5.75 27.371 5.75 26.873 L 5.75 26.082 C 5.75 25.638 5.869 24.952 6.351 24.307 C 6.728 23.798 7.35 23.308 8.37 22.942 L 8.37 27.746 C 8.367 28.061 8.531 28.354 8.803 28.514 C 9.077 28.672 9.41 28.672 9.684 28.514 C 9.956 28.354 10.121 28.06 10.117 27.746 L 10.117 22.587 L 12.738 22.369 L 12.738 24.689 C 12.734 25.004 12.898 25.296 13.171 25.457 C 13.444 25.614 13.778 25.614 14.051 25.457 C 14.324 25.296 14.488 25.003 14.485 24.689 L 14.485 22.205 L 17.105 21.986 L 17.105 24.252 C 17.102 24.567 17.266 24.859 17.539 25.02 C 17.812 25.177 18.146 25.177 18.419 25.02 C 18.692 24.859 18.856 24.566 18.852 24.252 L 18.852 21.85 L 21.473 21.632 L 21.473 26.436 C 21.469 26.751 21.634 27.043 21.906 27.204 C 22.18 27.361 22.513 27.361 22.787 27.204 C 23.059 27.043 23.223 26.75 23.22 26.436 L 23.22 21.468 L 25.84 21.249 L 25.84 23.379 C 25.837 23.693 26.001 23.986 26.274 24.147 C 26.547 24.304 26.881 24.304 27.154 24.147 C 27.427 23.986 27.591 23.692 27.587 23.379 L 27.587 21.086 L 30.208 20.868 L 30.208 22.942 C 30.205 23.257 30.369 23.549 30.641 23.71 C 30.915 23.867 31.248 23.867 31.522 23.71 C 31.794 23.549 31.959 23.256 31.955 22.942 L 31.955 20.731 L 34.576 20.513 L 34.576 25.126 C 34.572 25.44 34.736 25.733 35.009 25.894 C 35.282 26.051 35.616 26.051 35.889 25.894 C 36.162 25.733 36.326 25.439 36.323 25.126 L 36.323 20.349 L 38.943 20.13 L 38.943 22.069 C 38.94 22.383 39.104 22.676 39.376 22.836 C 39.65 22.994 39.984 22.994 40.257 22.836 C 40.529 22.676 40.694 22.382 40.69 22.069 L 40.69 19.967 L 42.601 19.803 C 42.846 19.779 43.089 19.745 43.311 19.694 L 43.311 21.632 C 43.307 21.946 43.471 22.239 43.744 22.4 C 44.017 22.557 44.351 22.557 44.625 22.4 C 44.897 22.239 45.061 21.945 45.058 21.632 L 45.058 19.011 C 45.065 18.957 45.065 18.902 45.058 18.847 C 45.344 18.636 45.614 18.41 45.849 18.166 L 45.849 18.165 Z  M 5.75 31.049 C 6.408 31.763 7.217 32.401 8.37 32.742 L 8.37 37.355 C 8.367 37.67 8.531 37.962 8.803 38.123 C 9.077 38.28 9.41 38.28 9.684 38.123 C 9.956 37.962 10.121 37.669 10.117 37.355 L 10.117 33.07 L 10.308 33.042 L 12.738 33.315 L 12.738 35.253 C 12.734 35.568 12.898 35.861 13.171 36.021 C 13.444 36.178 13.778 36.178 14.051 36.021 C 14.324 35.861 14.488 35.567 14.485 35.253 L 14.485 33.506 L 17.105 33.806 L 17.105 35.882 C 17.102 36.195 17.266 36.489 17.539 36.648 C 17.812 36.806 18.146 36.806 18.419 36.648 C 18.692 36.489 18.856 36.194 18.852 35.881 L 18.852 33.997 L 21.473 34.271 L 21.473 39.02 C 21.469 39.335 21.634 39.628 21.906 39.789 C 22.18 39.945 22.513 39.945 22.787 39.789 C 23.059 39.628 23.223 39.335 23.22 39.02 L 23.22 34.49 L 25.84 34.763 L 25.84 37.001 C 25.837 37.316 26.001 37.608 26.274 37.769 C 26.547 37.926 26.881 37.926 27.154 37.769 C 27.427 37.608 27.591 37.315 27.587 37 L 27.587 34.953 L 30.208 35.253 L 30.208 37.518 C 30.205 37.833 30.369 38.126 30.641 38.287 C 30.915 38.444 31.248 38.444 31.522 38.287 C 31.794 38.126 31.959 37.833 31.955 37.518 L 31.955 35.445 L 34.576 35.744 L 34.576 40.686 C 34.572 40.999 34.736 41.293 35.009 41.453 C 35.282 41.61 35.616 41.61 35.889 41.453 C 36.162 41.293 36.326 40.999 36.323 40.685 L 36.323 35.936 L 38.943 36.236 L 38.943 38.665 C 38.94 38.98 39.104 39.272 39.376 39.433 C 39.65 39.59 39.984 39.59 40.257 39.433 C 40.529 39.272 40.694 38.979 40.69 38.665 L 40.69 36.427 L 43.311 36.7 L 43.311 39.184 C 43.307 39.499 43.471 39.791 43.744 39.952 C 44.017 40.109 44.351 40.109 44.625 39.952 C 44.897 39.791 45.061 39.498 45.058 39.183 L 45.058 36.892 L 45.931 37.001 L 45.931 45.982 L 9.244 41.641 C 7.663 41.324 6.828 40.723 6.35 40.085 C 5.873 39.447 5.75 38.727 5.75 38.229 L 5.75 37.574 C 5.753 37.53 5.753 37.482 5.75 37.437 L 5.75 31.049 Z " fill="rgb(0,0,0)"/></g></svg>