<?xml version="1.0" encoding="UTF-8" standalone="no"?><!-- Generator: Gravit.io --><svg xmlns="http://www.w3.org/2000/svg" xmlns:xlink="http://www.w3.org/1999/xlink" style="isolation:isolate" viewBox="0 0 52 52" width="52pt" height="52pt"><defs><clipPath id="_clipPath_0dhpvBqGEQYliOEMcRQrNsDVwwwewmYU"><rect width="52" height="52"/></clipPath></defs><g clip-path="url(#_clipPath_0dhpvBqGEQYliOEMcRQrNsDVwwwewmYU)"><path d=" M 43.281 22.24 C 43.281 12.566 35.41 4.696 25.736 4.696 C 5.461 5.127 1.628 33.006 20.723 39.054 L 20.723 44.798 L 15.711 44.798 L 15.711 47.304 L 35.762 47.304 L 35.762 44.798 L 30.749 44.798 L 30.749 39.054 C 37.988 36.892 43.281 30.173 43.281 22.24 Z  M 10.698 22.24 C 10.698 13.948 17.444 7.202 25.736 7.202 C 45.659 7.958 45.654 36.526 25.736 37.279 C 17.444 37.279 10.698 30.533 10.698 22.24 Z  M 28.243 44.798 L 23.23 44.798 L 23.23 39.605 C 24.897 39.845 26.573 39.845 28.243 39.605 L 28.243 44.798 Z  M 18.879 14.934 L 20.303 16.894 L 22.33 15.421 L 20.905 13.458 C 21.991 12.858 23.2 12.454 24.483 12.293 L 24.483 14.721 L 26.989 14.721 L 26.989 12.293 C 28.273 12.454 29.481 12.859 30.568 13.458 L 29.142 15.421 L 31.17 16.894 L 32.594 14.934 C 33.51 15.795 34.265 16.826 34.808 17.975 L 32.5 18.725 L 33.275 21.109 L 35.584 20.359 C 35.82 21.577 35.821 22.897 35.586 24.122 L 33.274 23.372 L 32.5 25.756 L 37.271 27.305 C 40.706 18.951 34.85 9.751 25.736 9.709 C 16.622 9.752 10.766 18.952 14.202 27.305 L 18.972 25.755 L 18.198 23.371 L 15.887 24.122 C 15.652 22.897 15.653 21.577 15.889 20.359 L 18.198 21.109 L 18.972 18.725 L 16.665 17.975 C 17.207 16.826 17.962 15.795 18.879 14.934 L 18.879 14.934 Z  M 26.989 34.772 L 26.989 32.05 C 30.311 30.865 30.309 26.146 26.989 24.962 L 26.989 17.228 L 24.483 17.228 L 24.483 24.962 C 21.161 26.147 21.163 30.867 24.483 32.05 L 24.483 34.772 L 26.989 34.772 Z  M 25.736 27.253 C 26.427 27.253 26.989 27.815 26.989 28.506 C 26.926 30.167 24.546 30.166 24.483 28.506 C 24.483 27.815 25.045 27.253 25.736 27.253 Z " fill-rule="evenodd" fill="rgb(0,0,0)"/></g></svg>