<?xml version="1.0" encoding="UTF-8" standalone="no"?><!-- Generator: Gravit.io --><svg xmlns="http://www.w3.org/2000/svg" xmlns:xlink="http://www.w3.org/1999/xlink" style="isolation:isolate" viewBox="0 0 52 52" width="52pt" height="52pt"><defs><clipPath id="_clipPath_daRoo3HhU0549G6TwTanbCh53mbQshCv"><rect width="52" height="52"/></clipPath></defs><g clip-path="url(#_clipPath_daRoo3HhU0549G6TwTanbCh53mbQshCv)"><path d=" M 47.773 27.738 C 47.024 27.738 46.417 28.345 46.417 29.093 L 46.417 33.159 L 43.617 33.159 L 43.617 29.093 C 43.617 28.345 43.01 27.738 42.262 27.738 C 41.513 27.738 40.907 28.345 40.907 29.093 L 40.907 33.159 L 38.196 33.159 L 38.196 29.093 C 38.196 28.345 37.59 27.738 36.841 27.738 C 36.093 27.738 35.486 28.345 35.486 29.093 L 35.486 33.159 L 32.776 33.159 L 32.776 29.093 C 32.776 28.345 32.169 27.738 31.421 27.738 C 30.672 27.738 30.065 28.345 30.065 29.093 L 30.065 33.159 L 27.355 33.159 L 27.355 29.093 C 27.355 28.345 26.748 27.738 26 27.738 C 25.252 27.738 24.645 28.345 24.645 29.093 L 24.645 33.159 L 21.935 33.159 L 21.935 29.093 C 21.935 28.345 21.328 27.738 20.579 27.738 C 19.831 27.738 19.224 28.345 19.224 29.093 L 19.224 33.159 L 16.424 33.159 L 16.424 29.093 C 16.424 28.345 15.817 27.738 15.069 27.738 C 14.32 27.738 13.713 28.345 13.713 29.093 L 13.713 33.159 L 11.003 33.159 L 11.003 29.093 C 11.003 28.345 10.396 27.738 9.648 27.738 C 8.9 27.738 8.293 28.345 8.293 29.093 L 8.293 33.159 L 5.583 33.159 L 5.583 29.093 C 5.583 28.345 4.976 27.738 4.227 27.738 C 3.479 27.738 2.872 28.345 2.872 29.093 L 2.872 42.645 C 2.872 43.393 3.479 44 4.227 44 L 47.773 44 C 48.521 44 49.128 43.393 49.128 42.645 C 49.128 42.019 49.128 29.717 49.128 29.093 C 49.128 28.345 48.521 27.738 47.773 27.738 Z  M 46.417 41.29 L 5.583 41.29 L 5.583 35.869 L 46.417 35.869 L 46.417 41.29 Z  M 6.938 25.028 L 23.29 25.028 C 25.056 25.028 26.563 23.895 27.122 22.318 L 45.062 22.318 C 45.422 22.318 45.766 22.175 46.02 21.921 L 48.731 19.211 C 49.26 18.681 49.26 17.823 48.731 17.294 C 48.202 16.765 47.344 16.765 46.814 17.294 L 44.501 19.607 L 27.122 19.607 C 26.563 18.03 25.056 16.897 23.29 16.897 L 6.938 16.897 C 4.696 16.897 2.872 18.721 2.872 20.963 C 2.872 23.204 4.696 25.028 6.938 25.028 L 6.938 25.028 Z  M 6.938 19.607 L 23.29 19.607 C 24.037 19.607 24.645 20.215 24.645 20.963 C 24.645 21.71 24.037 22.318 23.29 22.318 L 6.938 22.318 C 6.19 22.318 5.583 21.71 5.583 20.963 C 5.583 20.215 6.19 19.607 6.938 19.607 Z  M 9.648 14.187 L 33.598 14.187 C 34.567 15.044 36.959 16.897 39.551 16.897 C 41.793 16.897 43.617 15.073 43.617 12.832 C 43.617 10.59 41.793 8.766 39.551 8.766 C 36.959 8.766 34.567 10.619 33.598 11.477 L 9.648 11.477 C 8.9 11.477 8.293 12.083 8.293 12.832 C 8.293 13.58 8.9 14.187 9.648 14.187 Z  M 39.551 11.477 C 40.299 11.477 40.907 12.085 40.907 12.832 C 40.907 13.579 40.299 14.187 39.551 14.187 C 38.427 14.187 37.171 13.496 36.246 12.832 C 37.172 12.167 38.428 11.477 39.551 11.477 Z " fill-rule="evenodd" fill="rgb(0,0,0)"/></g></svg>