<?xml version="1.0" encoding="UTF-8" standalone="no"?><!-- Generator: Gravit.io --><svg xmlns="http://www.w3.org/2000/svg" xmlns:xlink="http://www.w3.org/1999/xlink" style="isolation:isolate" viewBox="0 0 52 52" width="52pt" height="52pt"><defs><clipPath id="_clipPath_3xbqJw2gU0SlOHa0o5WcCKjNIk7t2gBe"><rect width="52" height="52"/></clipPath></defs><g clip-path="url(#_clipPath_3xbqJw2gU0SlOHa0o5WcCKjNIk7t2gBe)"><path d=" M 26 6 C 13.139 6 2.747 16.392 2.747 29.253 C 2.747 34.332 4.413 39.185 7.167 43 L 10.316 40.698 C 8.317 37.894 7.085 34.617 6.742 31.191 L 8.56 31.191 L 8.56 27.316 L 6.682 27.316 C 7.06 23.514 8.556 19.911 10.982 16.96 L 12.253 18.233 L 14.98 15.507 L 13.707 14.236 C 16.665 11.832 20.268 10.357 24.062 9.996 L 24.062 11.813 L 27.938 11.813 L 27.938 9.996 C 31.732 10.357 35.335 11.832 38.293 14.236 L 37.02 15.507 L 39.747 18.233 L 41.018 16.96 C 43.444 19.911 44.94 23.514 45.318 27.316 L 43.44 27.316 L 43.44 31.191 L 45.258 31.191 C 44.915 34.617 43.683 37.894 41.684 40.698 L 44.833 43 C 47.704 38.991 49.249 34.184 49.253 29.253 C 49.253 16.392 38.861 6 26 6 Z  M 37.022 18.233 L 26.422 25.438 C 26.283 25.422 26.145 25.378 26 25.378 C 23.86 25.378 22.124 27.113 22.124 29.253 C 22.124 31.394 23.86 33.129 26 33.129 C 28.14 33.129 29.876 31.394 29.876 29.253 C 29.876 29.11 29.831 28.972 29.815 28.829 L 37.022 18.233 L 37.022 18.233 Z " fill="rgb(44,108,216)"/></g></svg>