<?xml version="1.0" encoding="UTF-8" standalone="no"?><!-- Generator: Gravit.io --><svg xmlns="http://www.w3.org/2000/svg" xmlns:xlink="http://www.w3.org/1999/xlink" style="isolation:isolate" viewBox="0 0 52 52" width="52pt" height="52pt"><defs><clipPath id="_clipPath_xeO2VWuFmAYIEcJHTZwwCzxxJrrYTmRC"><rect width="52" height="52"/></clipPath></defs><g clip-path="url(#_clipPath_xeO2VWuFmAYIEcJHTZwwCzxxJrrYTmRC)"><path d=" M 43.523 11.194 C 41.446 11.196 39.674 12.695 39.325 14.742 L 12.237 14.742 C 11.866 12.561 9.887 11.028 7.683 11.213 C 5.479 11.398 3.783 13.24 3.781 15.452 L 3.781 36.742 C 3.783 39.093 5.688 40.998 8.039 41 L 43.523 41 C 45.873 40.998 47.778 39.093 47.781 36.742 L 47.781 15.452 C 47.778 13.101 45.873 11.196 43.523 11.194 L 43.523 11.194 Z  M 5.2 15.452 C 5.2 13.884 6.471 12.613 8.039 12.613 C 9.607 12.613 10.878 13.884 10.878 15.452 L 10.878 33.571 C 9.262 32.122 6.815 32.122 5.2 33.571 L 5.2 15.452 Z  M 43.523 39.581 L 8.039 39.581 C 6.471 39.581 5.2 38.31 5.2 36.742 C 5.2 35.174 6.471 33.903 8.039 33.903 C 9.607 33.903 10.878 35.174 10.878 36.742 C 10.878 37.134 11.195 37.452 11.587 37.452 C 11.979 37.452 12.297 37.134 12.297 36.742 L 12.297 16.161 L 39.265 16.161 L 39.265 36.742 C 39.265 37.134 39.582 37.452 39.974 37.452 C 40.366 37.452 40.684 37.134 40.684 36.742 C 40.684 35.174 41.955 33.903 43.523 33.903 C 45.09 33.903 46.361 35.174 46.361 36.742 C 46.361 38.31 45.09 39.581 43.523 39.581 Z  M 46.361 33.571 C 44.746 32.122 42.299 32.122 40.684 33.571 L 40.684 15.452 C 40.684 13.884 41.955 12.613 43.523 12.613 C 45.09 12.613 46.361 13.884 46.361 15.452 L 46.361 33.571 Z  M 26.49 30.477 L 26.49 28.226 C 26.49 27.834 26.173 27.516 25.781 27.516 C 25.389 27.516 25.071 27.834 25.071 28.226 L 25.071 30.477 C 24.093 30.823 23.507 31.822 23.682 32.844 C 23.858 33.866 24.744 34.613 25.781 34.613 C 26.818 34.613 27.704 33.866 27.879 32.844 C 28.054 31.822 27.468 30.823 26.49 30.477 Z  M 25.781 33.194 C 25.389 33.194 25.071 32.876 25.071 32.484 C 25.071 32.092 25.389 31.774 25.781 31.774 C 26.173 31.774 26.49 32.092 26.49 32.484 C 26.49 32.876 26.172 33.193 25.781 33.194 L 25.781 33.194 Z  M 25.781 21.129 C 20.688 21.135 16.561 25.262 16.555 30.355 C 16.555 30.747 16.873 31.065 17.265 31.065 L 18.684 31.065 C 19.076 31.065 19.394 30.747 19.394 30.355 C 19.394 29.963 19.076 29.645 18.684 29.645 L 18.006 29.645 C 18.371 25.624 21.743 22.544 25.781 22.544 C 29.819 22.544 33.19 25.624 33.555 29.645 L 32.878 29.645 C 32.486 29.645 32.168 29.963 32.168 30.355 C 32.168 30.747 32.486 31.065 32.878 31.065 L 34.297 31.065 C 34.689 31.065 35.007 30.747 35.007 30.355 C 35.001 25.262 30.874 21.135 25.781 21.129 L 25.781 21.129 Z " fill-rule="evenodd" fill="rgb(0,0,0)"/></g></svg>