<?xml version="1.0" encoding="UTF-8" standalone="no"?><!-- Generator: Gravit.io --><svg xmlns="http://www.w3.org/2000/svg" xmlns:xlink="http://www.w3.org/1999/xlink" style="isolation:isolate" viewBox="0 0 52 52" width="52pt" height="52pt"><defs><clipPath id="_clipPath_9AjH3pyJbLeWYKyPRh1cvryAA0xPofnw"><rect width="52" height="52"/></clipPath></defs><g clip-path="url(#_clipPath_9AjH3pyJbLeWYKyPRh1cvryAA0xPofnw)"><path d=" M 3 3.219 L 3 7.016 L 8.695 7.016 L 8.695 3.219 L 3 3.219 L 3 3.219 Z  M 12.492 3.219 L 12.492 7.016 L 18.187 7.016 L 18.187 3.219 L 12.492 3.219 L 12.492 3.219 Z  M 21.984 3.219 L 21.984 7.016 L 27.679 7.016 L 27.679 3.219 L 21.984 3.219 L 21.984 3.219 Z  M 31.476 3.219 L 31.476 7.016 L 37.171 7.016 L 37.171 3.219 L 31.476 3.219 L 31.476 3.219 Z  M 40.968 3.219 L 40.968 7.016 L 48.561 7.016 L 48.561 3.219 L 40.968 3.219 L 40.968 3.219 Z  M 9.644 10.813 C 8.279 10.813 7.093 11.428 6.263 12.178 C 5.432 12.926 4.883 13.839 4.424 14.668 C 3.861 15.708 3.404 16.801 3.059 17.932 L 6.738 18.881 C 6.738 18.881 7.093 17.628 7.746 16.449 C 8.024 15.921 8.385 15.44 8.815 15.025 C 9.17 14.705 9.39 14.61 9.644 14.61 C 9.667 14.61 9.703 14.566 10.06 15.025 C 10.415 15.485 10.897 16.373 11.305 17.516 C 11.928 19.259 12.469 21.624 13.025 24.102 L 3 24.102 L 3 27.898 L 13.916 27.898 C 14.561 30.723 15.25 33.535 16.171 35.849 C 16.712 37.204 17.32 38.414 18.187 39.408 C 19.055 40.401 20.346 41.187 21.805 41.187 C 23.385 41.187 24.712 40.179 25.424 39.169 C 26.138 38.163 26.523 37.176 26.908 36.265 C 27.294 35.351 27.664 34.594 28.036 34.186 C 28.406 33.78 28.651 33.594 29.399 33.594 C 32.476 33.594 34.813 31.843 36.102 29.677 C 37.393 27.513 37.957 24.984 38.418 22.558 C 38.876 20.134 39.254 17.812 39.781 16.331 C 40.047 15.589 40.338 15.061 40.552 14.847 C 40.769 14.632 40.805 14.61 41.146 14.61 C 42.504 14.61 43.29 15.396 43.933 16.508 C 44.579 17.62 44.825 18.763 44.825 18.763 L 48.503 18.05 C 48.503 18.05 48.212 16.347 47.195 14.61 C 46.179 12.875 44.155 10.813 41.144 10.813 C 39.869 10.813 38.631 11.354 37.822 12.178 C 37.014 13 36.59 13.987 36.22 15.025 C 35.48 17.1 35.115 19.525 34.677 21.846 C 34.529 22.634 34.329 23.367 34.145 24.102 L 20.262 24.102 L 21.033 27.898 L 32.78 27.898 C 31.979 29.204 31.199 29.797 29.397 29.797 C 27.677 29.797 26.172 30.56 25.245 31.577 C 24.317 32.593 23.829 33.734 23.406 34.721 C 22.982 35.708 22.635 36.62 22.337 37.033 C 22.041 37.451 22.123 37.39 21.805 37.39 C 21.604 37.39 21.441 37.375 21.033 36.916 C 20.625 36.456 20.122 35.558 19.668 34.423 C 18.772 32.164 18.03 28.899 17.295 25.584 C 16.562 22.27 15.833 18.911 14.863 16.212 C 14.381 14.862 13.863 13.706 13.082 12.711 C 12.304 11.718 11.097 10.813 9.642 10.813 L 9.644 10.813 L 9.644 10.813 Z  M 40.968 24.102 C 40.588 26.194 40.019 27.898 40.019 27.898 L 48.561 27.898 L 48.561 24.102 L 40.968 24.102 L 40.968 24.102 Z  M 3 44.984 L 3 48.781 L 8.695 48.781 L 8.695 44.984 L 3 44.984 L 3 44.984 Z  M 12.492 44.984 L 12.492 48.781 L 18.187 48.781 L 18.187 44.984 L 12.492 44.984 L 12.492 44.984 Z  M 21.984 44.984 L 21.984 48.781 L 27.679 48.781 L 27.679 44.984 L 21.984 44.984 L 21.984 44.984 Z  M 31.476 44.984 L 31.476 48.781 L 37.171 48.781 L 37.171 44.984 L 31.476 44.984 L 31.476 44.984 Z  M 40.968 44.984 L 40.968 48.781 L 48.561 48.781 L 48.561 44.984 L 40.968 44.984 L 40.968 44.984 Z " fill="rgb(44,108,216)"/></g></svg>