<?xml version="1.0" encoding="UTF-8" standalone="no"?><!-- Generator: Gravit.io --><svg xmlns="http://www.w3.org/2000/svg" xmlns:xlink="http://www.w3.org/1999/xlink" style="isolation:isolate" viewBox="0 0 52 52" width="52pt" height="52pt"><defs><clipPath id="_clipPath_Ds2TKK1mMJ9SBy4u00M3h5UDsODdUfjK"><rect width="52" height="52"/></clipPath></defs><g clip-path="url(#_clipPath_Ds2TKK1mMJ9SBy4u00M3h5UDsODdUfjK)"><path d=" M 33.783 10.613 L 30.185 10.613 L 30.185 16 C 30.182 16.008 28.971 16 28.968 16 L 28.968 10.004 C 28.968 9.668 29.24 9.396 29.576 9.396 L 34.392 9.396 C 34.727 9.396 35 9.668 35 10.004 L 35 16 C 35.004 16.008 33.781 16.004 33.783 16 L 33.783 10.613 Z  M 9.704 9.396 L 4.889 9.396 C 4.553 9.396 4.281 9.668 4.281 10.004 L 4.281 32.512 C 4.281 32.848 4.553 33.12 4.889 33.12 L 9.704 33.12 C 10.04 33.12 10.312 32.848 10.312 32.512 L 10.312 10.004 C 10.312 9.668 10.04 9.396 9.704 9.396 Z  M 9.096 31.903 L 5.497 31.903 L 5.497 10.613 L 9.096 10.613 L 9.096 31.903 Z  M 11.694 14.667 C 12.03 14.667 12.302 14.395 12.302 14.059 L 12.302 11.017 C 12.302 10.682 12.03 10.409 11.694 10.409 C 11.358 10.409 11.086 10.682 11.086 11.017 L 11.086 14.059 C 11.086 14.395 11.358 14.667 11.694 14.667 Z  M 13.519 14.667 C 13.855 14.667 14.127 14.395 14.127 14.059 L 14.127 11.017 C 14.127 10.682 13.855 10.409 13.519 10.409 C 13.183 10.409 12.91 10.682 12.91 11.017 L 12.91 14.059 C 12.91 14.395 13.183 14.667 13.519 14.667 Z  M 15.344 14.667 C 15.68 14.667 15.952 14.395 15.952 14.059 L 15.952 11.017 C 15.952 10.682 15.68 10.409 15.344 10.409 C 15.008 10.409 14.735 10.682 14.735 11.017 L 14.735 14.059 C 14.735 14.395 15.008 14.667 15.344 14.667 Z  M 17.169 14.667 C 17.504 14.667 17.777 14.395 17.777 14.059 L 17.777 11.017 C 17.777 10.682 17.504 10.409 17.169 10.409 C 16.833 10.409 16.56 10.682 16.56 11.017 L 16.56 14.059 C 16.56 14.395 16.833 14.667 17.169 14.667 Z  M 18.993 14.667 C 19.33 14.667 19.602 14.395 19.602 14.059 L 19.602 11.017 C 19.602 10.682 19.33 10.409 18.993 10.409 C 18.658 10.409 18.385 10.682 18.385 11.017 L 18.385 14.059 C 18.385 14.395 18.658 14.667 18.993 14.667 Z  M 20.818 14.667 C 21.154 14.667 21.427 14.395 21.427 14.059 L 21.427 11.017 C 21.427 10.682 21.154 10.409 20.818 10.409 C 20.483 10.409 20.21 10.682 20.21 11.017 L 20.21 14.059 C 20.21 14.395 20.483 14.667 20.818 14.667 Z  M 22.643 14.667 C 22.98 14.667 23.252 14.395 23.252 14.059 L 23.252 11.017 C 23.252 10.682 22.98 10.409 22.643 10.409 C 22.307 10.409 22.035 10.682 22.035 11.017 L 22.035 14.059 C 22.035 14.395 22.308 14.667 22.643 14.667 Z  M 24.468 14.667 C 24.805 14.667 25.077 14.395 25.077 14.059 L 25.077 11.017 C 25.077 10.682 24.805 10.409 24.468 10.409 C 24.132 10.409 23.86 10.682 23.86 11.017 L 23.86 14.059 C 23.86 14.395 24.133 14.667 24.468 14.667 Z  M 26.293 10.409 C 25.957 10.409 25.685 10.682 25.685 11.017 L 25.685 14.059 C 25.685 14.395 25.957 14.667 26.293 14.667 C 26.63 14.667 26.901 14.395 26.901 14.059 L 26.901 11.017 C 26.901 10.681 26.63 10.409 26.293 10.409 Z  M 28.118 10.409 C 27.782 10.409 27.51 10.682 27.51 11.017 L 27.51 14.059 C 27.51 14.395 27.782 14.667 28.118 14.667 C 28.455 14.667 28.726 14.395 28.726 14.059 L 28.726 11.017 C 28.726 10.681 28.455 10.409 28.118 10.409 Z  M 17.397 15.391 L 11.794 15.391 C 11.403 15.391 11.086 15.708 11.086 16.099 L 11.086 42.292 C 11.086 42.683 11.403 43 11.793 43 L 17.397 43 C 17.788 43 18.105 42.683 18.105 42.292 L 18.105 16.099 C 18.105 15.708 17.788 15.391 17.397 15.391 Z  M 16.689 41.584 L 12.501 41.584 L 12.501 16.807 L 16.689 16.807 L 16.689 41.584 Z  M 46.128 15.391 L 40.524 15.391 C 40.133 15.391 39.816 15.708 39.816 16.099 L 39.816 42.292 C 39.816 42.683 40.133 43 40.524 43 L 46.128 43 C 46.52 43 46.836 42.683 46.836 42.292 L 46.836 16.099 C 46.836 15.708 46.519 15.391 46.128 15.391 Z  M 45.42 41.584 L 41.232 41.584 L 41.232 16.807 L 45.42 16.807 L 45.42 41.584 Z  M 19.713 21.525 C 20.104 21.525 20.421 21.208 20.421 20.817 L 20.421 17.278 C 20.421 16.887 20.104 16.57 19.713 16.57 C 19.322 16.57 19.005 16.887 19.005 17.278 L 19.005 20.817 C 19.005 21.208 19.322 21.525 19.713 21.525 Z  M 19.713 40.876 C 20.104 40.876 20.421 40.56 20.421 40.168 L 20.421 23.178 C 20.421 22.787 20.104 22.47 19.713 22.47 C 19.322 22.47 19.005 22.787 19.005 23.178 L 19.005 40.168 C 19.005 40.559 19.322 40.876 19.713 40.876 Z  M 21.837 21.525 C 22.228 21.525 22.544 21.208 22.544 20.817 L 22.544 17.278 C 22.544 16.887 22.227 16.57 21.837 16.57 C 21.446 16.57 21.129 16.887 21.129 17.278 L 21.129 20.817 C 21.129 21.208 21.446 21.525 21.837 21.525 Z  M 21.837 40.876 C 22.228 40.876 22.544 40.56 22.544 40.168 L 22.544 23.178 C 22.544 22.787 22.227 22.47 21.837 22.47 C 21.446 22.47 21.129 22.787 21.129 23.178 L 21.129 40.168 C 21.129 40.559 21.446 40.876 21.837 40.876 Z  M 23.96 21.525 C 24.351 21.525 24.668 21.208 24.668 20.817 L 24.668 17.278 C 24.668 16.887 24.351 16.57 23.96 16.57 C 23.57 16.57 23.252 16.887 23.252 17.278 L 23.252 20.817 C 23.252 21.208 23.57 21.525 23.96 21.525 Z  M 23.96 40.876 C 24.351 40.876 24.668 40.56 24.668 40.168 L 24.668 23.178 C 24.668 22.787 24.351 22.47 23.96 22.47 C 23.57 22.47 23.252 22.787 23.252 23.178 L 23.252 40.168 C 23.252 40.559 23.57 40.876 23.96 40.876 Z  M 26.084 21.525 C 26.475 21.525 26.792 21.208 26.792 20.817 L 26.792 17.278 C 26.792 16.887 26.475 16.57 26.084 16.57 C 25.693 16.57 25.376 16.887 25.376 17.278 L 25.376 20.817 C 25.376 21.208 25.693 21.525 26.084 21.525 Z  M 26.084 40.876 C 26.475 40.876 26.792 40.56 26.792 40.168 L 26.792 23.178 C 26.792 22.787 26.475 22.47 26.084 22.47 C 25.693 22.47 25.376 22.787 25.376 23.178 L 25.376 40.168 C 25.376 40.559 25.693 40.876 26.084 40.876 Z  M 28.208 21.525 C 28.599 21.525 28.916 21.208 28.916 20.817 L 28.916 17.278 C 28.916 16.887 28.599 16.57 28.208 16.57 C 27.817 16.57 27.5 16.887 27.5 17.278 L 27.5 20.817 C 27.5 21.208 27.817 21.525 28.208 21.525 Z  M 28.208 40.876 C 28.599 40.876 28.916 40.56 28.916 40.168 L 28.916 23.178 C 28.916 22.787 28.599 22.47 28.208 22.47 C 27.817 22.47 27.5 22.787 27.5 23.178 L 27.5 40.168 C 27.5 40.559 27.817 40.876 28.208 40.876 Z  M 30.332 21.525 C 30.722 21.525 31.04 21.208 31.04 20.817 L 31.04 17.278 C 31.04 16.887 30.722 16.57 30.332 16.57 C 29.941 16.57 29.624 16.887 29.624 17.278 L 29.624 20.817 C 29.624 21.208 29.941 21.525 30.332 21.525 Z  M 30.332 40.876 C 30.722 40.876 31.04 40.56 31.04 40.168 L 31.04 23.178 C 31.04 22.787 30.722 22.47 30.332 22.47 C 29.941 22.47 29.624 22.787 29.624 23.178 L 29.624 40.168 C 29.624 40.559 29.941 40.876 30.332 40.876 Z  M 32.456 21.525 C 32.848 21.525 33.163 21.208 33.163 20.817 L 33.163 17.278 C 33.163 16.887 32.848 16.57 32.456 16.57 C 32.064 16.57 31.748 16.887 31.748 17.278 L 31.748 20.817 C 31.748 21.208 32.065 21.525 32.456 21.525 Z  M 32.456 40.876 C 32.848 40.876 33.163 40.56 33.163 40.168 L 33.163 23.178 C 33.163 22.787 32.848 22.47 32.456 22.47 C 32.064 22.47 31.748 22.787 31.748 23.178 L 31.748 40.168 C 31.748 40.559 32.065 40.876 32.456 40.876 Z  M 34.579 21.525 C 34.971 21.525 35.287 21.208 35.287 20.817 L 35.287 17.278 C 35.287 16.887 34.972 16.57 34.579 16.57 C 34.188 16.57 33.871 16.887 33.871 17.278 L 33.871 20.817 C 33.871 21.208 34.189 21.525 34.579 21.525 Z  M 34.579 40.876 C 34.971 40.876 35.287 40.56 35.287 40.168 L 35.287 23.178 C 35.287 22.787 34.972 22.47 34.579 22.47 C 34.188 22.47 33.871 22.787 33.871 23.178 L 33.871 40.168 C 33.871 40.559 34.189 40.876 34.579 40.876 Z  M 36.703 16.57 C 36.312 16.57 35.995 16.887 35.995 17.278 L 35.995 20.817 C 35.995 21.208 36.312 21.525 36.703 21.525 C 37.095 21.525 37.411 21.208 37.411 20.817 L 37.411 17.278 C 37.411 16.886 37.095 16.57 36.703 16.57 Z  M 36.703 22.47 C 36.312 22.47 35.995 22.787 35.995 23.178 L 35.995 40.168 C 35.995 40.56 36.312 40.876 36.703 40.876 C 37.095 40.876 37.411 40.56 37.411 40.168 L 37.411 23.178 C 37.411 22.787 37.095 22.47 36.703 22.47 Z  M 38.827 16.57 C 38.436 16.57 38.119 16.887 38.119 17.278 L 38.119 20.817 C 38.119 21.208 38.436 21.525 38.827 21.525 C 39.219 21.525 39.535 21.208 39.535 20.817 L 39.535 17.278 C 39.535 16.886 39.219 16.57 38.827 16.57 Z  M 38.827 22.47 C 38.436 22.47 38.119 22.787 38.119 23.178 L 38.119 40.168 C 38.119 40.56 38.436 40.876 38.827 40.876 C 39.219 40.876 39.535 40.56 39.535 40.168 L 39.535 23.178 C 39.535 22.787 39.219 22.47 38.827 22.47 Z " fill-rule="evenodd" fill="rgb(0,0,0)"/></g></svg>