<?xml version="1.0" encoding="UTF-8" standalone="no"?><!-- Generator: Gravit.io --><svg xmlns="http://www.w3.org/2000/svg" xmlns:xlink="http://www.w3.org/1999/xlink" style="isolation:isolate" viewBox="0 0 52 52" width="52pt" height="52pt"><defs><clipPath id="_clipPath_CdZq43WbV2o4fMjvOqGw8wcXeFME6pv3"><rect width="52" height="52"/></clipPath></defs><g clip-path="url(#_clipPath_CdZq43WbV2o4fMjvOqGw8wcXeFME6pv3)"><path d=" M 11.872 9.396 L 5.132 9.396 C 4.662 9.396 4.281 9.777 4.281 10.248 L 4.281 41.752 C 4.281 42.223 4.662 42.604 5.132 42.604 L 11.872 42.604 C 12.342 42.604 12.723 42.223 12.723 41.752 L 12.723 10.248 C 12.724 9.777 12.342 9.396 11.872 9.396 Z  M 11.021 40.901 L 5.984 40.901 L 5.984 11.099 L 11.021 11.099 L 11.021 40.901 Z  M 46.429 9.396 L 39.689 9.396 C 39.218 9.396 38.838 9.777 38.838 10.248 L 38.838 41.752 C 38.838 42.223 39.218 42.604 39.689 42.604 L 46.429 42.604 C 46.9 42.604 47.281 42.223 47.281 41.752 L 47.281 10.248 C 47.281 9.777 46.899 9.396 46.429 9.396 Z  M 45.578 40.901 L 40.541 40.901 L 40.541 11.099 L 45.578 11.099 L 45.578 40.901 Z  M 14.657 16.775 C 15.128 16.775 15.509 16.393 15.509 15.923 L 15.509 11.666 C 15.509 11.196 15.128 10.814 14.657 10.814 C 14.187 10.814 13.806 11.196 13.806 11.666 L 13.806 15.923 C 13.806 16.393 14.188 16.775 14.657 16.775 Z  M 14.657 40.049 C 15.128 40.049 15.509 39.669 15.509 39.198 L 15.509 18.762 C 15.509 18.292 15.128 17.911 14.657 17.911 C 14.187 17.911 13.806 18.292 13.806 18.762 L 13.806 39.198 C 13.806 39.668 14.188 40.049 14.657 40.049 Z  M 17.212 16.775 C 17.682 16.775 18.063 16.393 18.063 15.923 L 18.063 11.666 C 18.063 11.196 17.682 10.814 17.212 10.814 C 16.742 10.814 16.36 11.196 16.36 11.666 L 16.36 15.923 C 16.36 16.393 16.742 16.775 17.212 16.775 Z  M 17.212 40.049 C 17.682 40.049 18.063 39.669 18.063 39.198 L 18.063 18.762 C 18.063 18.292 17.682 17.911 17.212 17.911 C 16.742 17.911 16.36 18.292 16.36 18.762 L 16.36 39.198 C 16.36 39.668 16.742 40.049 17.212 40.049 Z  M 19.766 16.775 C 20.236 16.775 20.618 16.393 20.618 15.923 L 20.618 11.666 C 20.618 11.196 20.236 10.814 19.766 10.814 C 19.296 10.814 18.915 11.196 18.915 11.666 L 18.915 15.923 C 18.915 16.393 19.297 16.775 19.766 16.775 Z  M 19.766 40.049 C 20.236 40.049 20.618 39.669 20.618 39.198 L 20.618 18.762 C 20.618 18.292 20.236 17.911 19.766 17.911 C 19.296 17.911 18.915 18.292 18.915 18.762 L 18.915 39.198 C 18.915 39.668 19.297 40.049 19.766 40.049 Z  M 22.321 16.775 C 22.791 16.775 23.172 16.393 23.172 15.923 L 23.172 11.666 C 23.172 11.196 22.791 10.814 22.321 10.814 C 21.851 10.814 21.469 11.196 21.469 11.666 L 21.469 15.923 C 21.469 16.393 21.851 16.775 22.321 16.775 Z  M 22.321 40.049 C 22.791 40.049 23.172 39.669 23.172 39.198 L 23.172 18.762 C 23.172 18.292 22.791 17.911 22.321 17.911 C 21.851 17.911 21.469 18.292 21.469 18.762 L 21.469 39.198 C 21.469 39.668 21.851 40.049 22.321 40.049 Z  M 24.875 16.775 C 25.346 16.775 25.727 16.393 25.727 15.923 L 25.727 11.666 C 25.727 11.196 25.346 10.814 24.875 10.814 C 24.405 10.814 24.024 11.196 24.024 11.666 L 24.024 15.923 C 24.024 16.393 24.405 16.775 24.875 16.775 Z  M 24.875 40.049 C 25.346 40.049 25.727 39.669 25.727 39.198 L 25.727 18.762 C 25.727 18.292 25.346 17.911 24.875 17.911 C 24.405 17.911 24.024 18.292 24.024 18.762 L 24.024 39.198 C 24.024 39.668 24.405 40.049 24.875 40.049 Z  M 27.429 16.775 C 27.899 16.775 28.281 16.393 28.281 15.923 L 28.281 11.666 C 28.281 11.196 27.899 10.814 27.429 10.814 C 26.96 10.814 26.578 11.196 26.578 11.666 L 26.578 15.923 C 26.578 16.393 26.96 16.775 27.429 16.775 Z  M 27.429 40.049 C 27.899 40.049 28.281 39.669 28.281 39.198 L 28.281 18.762 C 28.281 18.292 27.899 17.911 27.429 17.911 C 26.96 17.911 26.578 18.292 26.578 18.762 L 26.578 39.198 C 26.578 39.668 26.96 40.049 27.429 40.049 Z  M 29.984 16.775 C 30.456 16.775 30.836 16.393 30.836 15.923 L 30.836 11.666 C 30.836 11.196 30.456 10.814 29.984 10.814 C 29.513 10.814 29.133 11.196 29.133 11.666 L 29.133 15.923 C 29.133 16.393 29.514 16.775 29.984 16.775 Z  M 29.984 40.049 C 30.456 40.049 30.836 39.669 30.836 39.198 L 30.836 18.762 C 30.836 18.292 30.456 17.911 29.984 17.911 C 29.513 17.911 29.133 18.292 29.133 18.762 L 29.133 39.198 C 29.133 39.668 29.514 40.049 29.984 40.049 Z  M 32.539 16.775 C 33.01 16.775 33.39 16.393 33.39 15.923 L 33.39 11.666 C 33.39 11.196 33.01 10.814 32.539 10.814 C 32.068 10.814 31.687 11.196 31.687 11.666 L 31.687 15.923 C 31.687 16.393 32.069 16.775 32.539 16.775 Z  M 32.539 40.049 C 33.01 40.049 33.39 39.669 33.39 39.198 L 33.39 18.762 C 33.39 18.292 33.01 17.911 32.539 17.911 C 32.068 17.911 31.687 18.292 31.687 18.762 L 31.687 39.198 C 31.687 39.668 32.069 40.049 32.539 40.049 Z  M 35.093 10.814 C 34.622 10.814 34.241 11.196 34.241 11.666 L 34.241 15.923 C 34.241 16.393 34.622 16.774 35.093 16.774 C 35.564 16.774 35.944 16.393 35.944 15.923 L 35.944 11.666 C 35.944 11.195 35.565 10.814 35.093 10.814 Z  M 35.093 17.911 C 34.622 17.911 34.241 18.292 34.241 18.762 L 34.241 39.198 C 34.241 39.669 34.622 40.049 35.093 40.049 C 35.564 40.049 35.944 39.669 35.944 39.198 L 35.944 18.762 C 35.944 18.292 35.565 17.911 35.093 17.911 Z  M 37.647 10.814 C 37.177 10.814 36.796 11.196 36.796 11.666 L 36.796 15.923 C 36.796 16.393 37.177 16.774 37.647 16.774 C 38.119 16.774 38.499 16.393 38.499 15.923 L 38.499 11.666 C 38.499 11.195 38.119 10.814 37.647 10.814 Z  M 37.647 17.911 C 37.177 17.911 36.796 18.292 36.796 18.762 L 36.796 39.198 C 36.796 39.669 37.177 40.049 37.647 40.049 C 38.119 40.049 38.499 39.669 38.499 39.198 L 38.499 18.762 C 38.499 18.292 38.119 17.911 37.647 17.911 Z " fill-rule="evenodd" fill="rgb(0,0,0)"/></g></svg>