<?xml version="1.0" encoding="UTF-8" standalone="no"?><!-- Generator: Gravit.io --><svg xmlns="http://www.w3.org/2000/svg" xmlns:xlink="http://www.w3.org/1999/xlink" style="isolation:isolate" viewBox="0 0 52 52" width="52pt" height="52pt"><defs><clipPath id="_clipPath_96fPEgPJoDTbutBmgNyYLejNjttGsxYK"><rect width="52" height="52"/></clipPath></defs><g clip-path="url(#_clipPath_96fPEgPJoDTbutBmgNyYLejNjttGsxYK)"><path d=" M 9.155 18.604 C 9.155 18.604 9.155 18.605 9.154 18.606 C 9.154 18.607 9.154 18.609 9.154 18.61 L 5.398 44.898 C 5.089 47.064 6.771 49 8.956 49 L 43.044 49 C 45.312 49 47.012 46.925 46.567 44.7 L 45.293 38.404 C 45.194 37.918 44.72 37.604 44.234 37.702 C 43.747 37.8 43.433 38.274 43.532 38.761 L 44.806 45.054 C 45.028 46.167 44.176 47.203 43.044 47.203 L 32.812 47.203 C 33.199 46.53 33.37 45.727 33.252 44.898 L 30.344 24.543 L 30.554 23.491 C 30.721 22.654 31.462 22.047 32.316 22.047 L 38.678 22.047 C 39.532 22.047 40.272 22.654 40.44 23.494 L 41.926 30.835 C 42.013 31.261 42.387 31.555 42.806 31.555 C 42.865 31.555 42.925 31.549 42.985 31.537 C 43.472 31.439 43.786 30.965 43.688 30.478 L 42.202 23.14 C 41.895 21.602 40.619 20.452 39.091 20.275 L 39.091 15.758 C 39.091 15.262 38.688 14.859 38.192 14.859 L 32.802 14.859 C 32.305 14.859 31.903 15.262 31.903 15.758 L 31.903 20.275 C 31.129 20.364 30.42 20.704 29.868 21.217 L 28.631 12.555 C 28.408 10.987 27.171 9.745 25.614 9.51 L 25.614 3.898 C 25.614 3.402 25.212 3 24.716 3 L 13.934 3 C 13.438 3 13.036 3.402 13.036 3.898 L 13.036 9.511 C 11.498 9.748 10.244 10.977 10.019 12.554 L 9.155 18.604 Z  M 37.294 16.656 L 37.294 20.25 L 33.7 20.25 L 33.7 16.656 L 37.294 16.656 Z  M 28.381 23.509 L 29.012 27.93 L 11.022 18.244 L 11.563 14.453 L 28.381 23.509 Z  M 31.473 45.152 C 31.589 45.969 31.146 46.736 30.416 47.052 L 8.585 35.298 L 9.126 31.507 L 31.223 43.405 L 31.473 45.152 Z  M 26.906 47.203 L 13.06 47.203 L 19.983 43.475 L 26.906 47.203 Z  M 8.314 37.193 L 12.402 39.394 L 7.633 41.962 L 8.314 37.193 Z  M 9.397 29.612 L 9.938 25.823 L 30.276 36.773 L 30.907 41.195 L 9.397 29.612 Z  M 10.209 23.928 L 10.751 20.138 L 29.328 30.141 L 29.96 34.563 L 10.209 23.928 Z  M 28.065 21.298 L 23.247 18.704 L 27.377 16.48 L 28.065 21.298 Z  M 7.177 45.152 L 7.317 44.173 L 14.298 40.414 L 18.088 42.455 L 9.27 47.203 L 8.956 47.203 C 7.862 47.203 7.023 46.234 7.177 45.152 L 7.177 45.152 Z  M 26.852 12.809 L 27.106 14.585 L 21.352 17.683 L 17.562 15.643 L 25.562 11.334 C 26.236 11.525 26.751 12.1 26.852 12.809 L 26.852 12.809 Z  M 23.817 4.797 L 23.817 9.469 L 14.833 9.469 L 14.833 4.797 L 23.817 4.797 Z  M 13.577 11.266 L 21.9 11.266 L 15.667 14.622 L 11.851 12.568 C 12.07 11.811 12.772 11.266 13.577 11.266 L 13.577 11.266 Z  M 42.684 34.625 C 42.684 34.129 43.087 33.726 43.583 33.726 C 44.079 33.726 44.481 34.129 44.481 34.625 C 44.481 35.121 44.079 35.523 43.583 35.523 C 43.087 35.523 42.684 35.121 42.684 34.625 Z " fill-rule="evenodd" fill="rgb(0,0,0)"/></g></svg>