<?xml version="1.0" encoding="UTF-8" standalone="no"?><!-- Generator: Gravit.io --><svg xmlns="http://www.w3.org/2000/svg" xmlns:xlink="http://www.w3.org/1999/xlink" style="isolation:isolate" viewBox="0 0 256 256" width="256pt" height="256pt"><defs><clipPath id="_clipPath_K0EoleVTcyi6VF6vVTGKD5suS5nwjOIg"><rect width="256" height="256"/></clipPath></defs><g clip-path="url(#_clipPath_K0EoleVTcyi6VF6vVTGKD5suS5nwjOIg)"><clipPath id="_clipPath_euxmQvRxJSnTDE89jzvcOlWMGXJecKF9"><rect x="0" y="0" width="256" height="256" transform="matrix(1,0,0,1,0,0)" fill="rgb(255,255,255)"/></clipPath><g clip-path="url(#_clipPath_euxmQvRxJSnTDE89jzvcOlWMGXJecKF9)"><g><path d=" M 128.863 9.871 C 128.41 10.035 127.508 10.775 126.932 11.512 C 125.578 13.071 125.496 14.92 126.605 18.038 C 127.672 21.076 127.219 22.141 123.937 24.563 C 122.501 25.631 121.147 26.903 120.858 27.397 C 120.571 27.93 120.079 28.421 119.711 28.544 C 119.34 28.667 118.438 29.284 117.699 29.939 C 117.002 30.597 116.017 31.252 115.564 31.419 C 115.113 31.542 114.744 31.828 114.744 31.951 C 114.744 32.115 113.595 33.101 112.241 34.086 C 110.845 35.11 108.833 36.713 107.725 37.696 L 105.797 39.462 L 101.652 38.968 L 97.505 38.477 L 95.987 40.036 C 94.264 41.802 94.06 43.525 95.209 45.783 C 96.192 47.67 96.028 49.065 94.592 50.708 C 93.156 52.349 91.965 52.513 89.503 51.528 C 87.616 50.708 86.917 50.954 85.522 52.923 C 84.127 54.894 84.086 56.289 85.399 58.875 L 86.385 60.844 L 85.317 62.774 C 83.512 65.933 83.553 65.933 80.515 65.318 C 79.078 65.032 77.519 64.906 77.11 65.032 C 76.329 65.277 74.934 68.027 74.934 69.258 C 74.934 69.668 75.425 70.94 76.042 72.09 L 77.151 74.184 L 75.633 77.343 C 74.811 79.066 73.907 80.504 73.62 80.545 C 73.334 80.586 71.816 80.627 70.295 80.627 L 67.464 80.668 L 66.685 83.131 C 66.273 84.485 65.905 85.839 65.905 86.126 C 65.905 86.413 66.767 87.521 67.791 88.589 C 69.681 90.476 69.681 90.516 69.394 92.57 C 68.736 97.618 68.49 98.931 68.204 99.218 C 68.04 99.382 66.314 99.709 64.346 99.958 L 60.774 100.367 L 60.488 103.857 C 60.037 108.616 60.201 109.069 62.333 109.601 C 66.15 110.546 66.109 110.505 66.232 112.474 C 66.314 113.459 66.273 114.854 66.15 115.553 L 65.905 116.785 L 53.509 116.659 L 41.075 116.577 L 38.408 117.932 C 33.851 120.312 32.087 123.761 32.046 130.532 C 32.046 135.007 32.868 137.18 35.494 139.684 C 38.49 142.515 39.227 142.641 53.14 142.723 C 66.522 142.764 66.355 142.764 66.273 144.896 C 66.191 147.031 65.7 147.727 63.442 148.877 L 61.184 150.026 L 61.266 152.983 C 61.35 154.583 61.555 156.388 61.801 156.964 C 62.17 157.947 62.415 158.029 64.55 158.07 C 68.531 158.154 69.312 158.482 69.844 160.082 C 71.076 163.817 70.994 164.68 69.23 167.265 C 67.382 169.974 67.218 170.916 68.204 173.996 L 68.9 176.087 L 72.348 175.964 L 75.796 175.882 L 76.82 178.304 C 78.134 181.507 78.052 182.244 76.37 184.297 C 74.647 186.388 74.565 187.374 76.042 190.536 C 77.069 192.75 77.233 192.914 78.505 192.914 C 79.283 192.914 80.228 192.75 80.596 192.545 C 80.968 192.381 82.076 192.095 83.059 191.972 C 84.826 191.764 84.867 191.764 86.057 193.654 C 87.493 195.953 87.534 196.321 86.221 199.235 L 85.194 201.574 L 86.057 203.297 C 86.548 204.242 87.247 205.228 87.616 205.514 C 88.394 206.09 91.021 206.213 91.597 205.678 C 91.802 205.514 92.582 205.146 93.361 204.859 C 94.715 204.406 94.797 204.488 96.604 206.254 C 98.614 208.305 98.532 207.485 97.672 214.257 C 97.423 216.061 97.505 216.184 99.108 217.661 C 100.667 219.1 101.939 219.551 102.554 218.934 C 102.761 218.688 106.783 217.211 107.274 217.129 C 107.356 217.129 108.751 218.36 110.351 219.919 C 111.995 221.437 114.086 223.327 115.031 224.105 C 127.219 234.529 127.754 235.064 128.041 236.623 C 128.287 237.773 128.123 238.305 127.508 239.168 C 125.373 241.836 127.137 244.872 131.448 246.021 C 133.704 246.638 134.157 246.638 135.429 246.103 C 137.398 245.284 138.138 243.643 138.138 240.154 C 138.138 237.486 138.015 237.158 136.62 235.31 C 135.798 234.243 134.976 233.26 134.771 233.216 C 134.607 233.134 134.444 232.806 134.444 232.52 C 134.444 232.233 152.133 214.298 173.76 192.627 C 216.115 150.149 222.723 143.46 223.462 142.106 C 223.708 141.655 223.913 139.356 223.913 136.934 L 223.913 132.585 L 219.809 132.585 C 217.551 132.585 215.706 132.749 215.706 132.913 C 215.706 133.117 215.007 133.652 214.106 134.144 C 212.874 134.84 211.848 135.048 209.467 135.048 C 204.869 135.048 204.664 134.799 204.664 129.382 C 204.705 123.185 204.828 123.021 209.672 123.228 C 212.997 123.351 213.612 123.474 214.884 124.416 C 216.156 125.402 216.773 125.524 220.014 125.647 L 223.708 125.814 L 223.831 121.38 L 223.954 116.908 L 216.402 109.356 C 212.257 105.211 208.645 101.804 208.399 101.804 C 208.113 101.804 207.908 101.599 207.908 101.312 C 207.908 101.064 190.999 83.95 170.355 63.306 C 128.492 21.486 131.2 24.563 134.321 21.937 L 135.88 20.623 L 135.88 17.011 C 135.88 13.852 135.757 13.156 134.894 11.717 C 134.321 10.816 133.663 9.953 133.458 9.789 C 132.844 9.38 129.928 9.421 128.863 9.871 Z  M 130.504 28.833 C 130.954 29.571 140.436 39.34 151.639 50.583 C 162.844 61.788 181.148 80.092 192.312 91.297 C 203.474 102.459 213.284 112.146 214.106 112.76 C 215.788 114.033 217.142 116.004 216.607 116.332 C 216.402 116.454 214.433 116.372 212.175 116.168 C 209.958 116.004 182.011 115.84 150.121 115.881 L 92.17 115.963 L 92.088 113.705 C 92.047 112.474 92.006 110.423 92.006 109.192 C 91.965 107.343 91.802 106.893 91.062 106.524 C 90.611 106.276 89.667 105.498 89.011 104.84 C 88.394 104.143 87.575 103.404 87.204 103.199 C 85.975 102.502 83.963 97.659 83.553 94.415 C 83.348 92.692 83.059 91.011 82.936 90.598 C 82.568 89.656 83.84 82.76 84.908 80.092 C 86.262 76.728 89.175 71.145 91.021 68.396 C 91.924 67.041 92.992 65.277 93.361 64.497 C 93.732 63.677 94.469 62.569 94.961 61.993 C 95.455 61.42 97.096 59.284 98.573 57.275 C 100.05 55.222 102.39 52.308 103.785 50.79 C 108.014 46.111 117.617 36.754 118.438 36.467 C 119.258 36.219 125.251 31.337 127.014 29.489 C 128.041 28.421 129.108 27.561 129.313 27.52 C 129.559 27.52 130.094 28.134 130.504 28.833 Z  M 202.982 120.724 C 202.982 121.175 202.778 121.915 202.573 122.365 C 202.12 123.144 201.178 123.185 123.978 123.144 C 70.584 123.103 45.343 123.228 44.234 123.515 C 43.374 123.761 42.348 124.293 41.979 124.705 C 40.993 125.77 40.049 128.274 40.049 129.713 C 40.049 131.231 41.239 133.693 42.511 134.84 C 43.415 135.662 44.07 135.662 122.87 135.744 C 175.404 135.826 202.45 135.99 202.778 136.279 C 203.392 136.771 203.105 138.742 202.406 138.742 C 202.161 138.742 166.085 138.783 122.255 138.824 L 42.593 138.906 L 40.54 137.551 C 38.858 136.361 38.326 135.662 37.217 133.158 C 36.518 131.517 35.945 129.628 35.945 129.014 C 35.945 127.332 37.75 123.144 38.735 122.57 C 39.145 122.324 40.172 121.748 40.911 121.298 C 42.184 120.558 43.292 120.476 53.594 120.271 C 59.789 120.148 95.946 119.985 133.952 119.944 L 202.982 119.862 L 202.982 120.724 Z  M 218.086 142.968 C 218.168 143.296 217.838 143.706 217.428 143.828 C 216.978 143.995 215.46 145.183 214.021 146.54 C 212.585 147.894 211.272 149 211.067 149 C 210.903 149 210.575 149.453 210.371 150.026 C 210.163 150.602 209.713 151.053 209.385 151.053 C 209.098 151.053 208.358 151.711 207.744 152.489 C 207.168 153.27 205.404 155.156 203.886 156.716 C 202.365 158.277 200.888 159.795 200.561 160.123 C 200.274 160.451 197.443 163.282 194.322 166.444 C 191.163 169.603 188.372 172.436 188.124 172.723 C 187.837 173.01 185.58 175.227 183.078 177.649 C 180.616 180.068 177.989 182.694 177.331 183.475 C 176.635 184.256 175.444 185.487 174.664 186.143 C 173.883 186.842 172.283 188.401 171.133 189.632 C 169.984 190.863 167.974 192.914 166.62 194.186 C 165.307 195.459 160.996 199.688 157.14 203.628 C 153.239 207.567 147.003 213.763 143.268 217.457 C 139.533 221.151 136.497 224.312 136.497 224.435 C 136.497 224.599 135.921 225.091 135.265 225.544 C 134.566 225.994 133.253 227.348 132.349 228.539 C 131.448 229.688 130.463 230.674 130.135 230.674 C 129.805 230.674 129.149 230.098 128.614 229.443 C 128.123 228.744 126.564 227.43 125.169 226.527 C 123.732 225.626 122.337 224.558 122.048 224.23 C 121.761 223.859 120.53 222.833 119.299 221.932 C 116.508 219.878 103.744 207.114 101.036 203.709 C 97.876 199.688 95.905 196.936 95.25 195.54 C 94.92 194.844 94.428 194.145 94.1 194.022 C 93.814 193.9 92.951 192.709 92.252 191.314 C 91.515 189.96 90.693 188.728 90.488 188.564 C 90.079 188.319 89.093 186.307 86.835 181.217 C 86.344 180.068 85.645 178.591 85.317 177.935 C 83.1 173.501 83.018 163.366 85.194 158.687 C 85.975 156.964 89.38 153.434 91.474 152.12 L 92.623 151.421 L 92.46 147.564 C 92.375 145.472 92.419 143.542 92.582 143.255 C 92.787 142.927 107.397 142.804 146.591 142.804 C 176.141 142.764 203.556 142.597 207.496 142.474 C 216.691 142.065 217.92 142.147 218.086 142.968 Z " fill="rgb(255,255,255)"/></g></g></g></svg>